<svg xmlns="http://www.w3.org/2000/svg" viewBox="0 0 400 300" width="400" height="300" role="img" aria-label="Fachada del colegio con portales">
  <title>Fachada del colegio con portales</title>
  <rect width="400" height="300" fill="#186F80"/>
  <circle cx="332" cy="60" r="34" fill="#F0B255" opacity=".85"/>
  <rect y="238" width="400" height="62" fill="#F7F1E4"/>
  <rect x="60" y="96" width="280" height="142" fill="#FFFCF5"/>
  <path d="M40 96 200 30l160 66Z" fill="#BB4019"/>
  <path d="M86 238v-58a22 22 0 0 1 44 0v58Z" fill="#0E4C5A"/>
  <path d="M178 238v-58a22 22 0 0 1 44 0v58Z" fill="#0E4C5A"/>
  <path d="M270 238v-58a22 22 0 0 1 44 0v58Z" fill="#0E4C5A"/>
  <rect x="188" y="196" width="24" height="42" fill="#F0B255"/>
  <path d="M0 268c26 0 26 8 52 8s26-8 52-8 26 8 52 8 26-8 52-8 26 8 52 8 26-8 52-8 26 8 52 8v32H0Z" fill="#1D8296" opacity=".5"/>
</svg>
